{"title":"Defiance-720p MP4 AAC BRRip 2008-CC","uid":7110129,"size":2343954412,"categoryP":"video","categoryS":"hd___movies","magnet":"?xt=urn:btih:5d38bb45d4dd47f09dd1fd5f7549423fa4757a70&amp;dn=Defiance-720p+MP4+AAC+BRRip+2008-CC&amp;tr=udp%3A%2F%2Ftracker.openbittorrent.com%3A80&amp;tr=udp%3A%2F%2Fopen.demonii.com%3A1337&amp;tr=udp%3A%2F%2Ftracker.coppersurfer.tk%3A6969&amp;tr=udp%3A%2F%2Fexodus.desync.com%3A6969","seeders":0,"leechers":2,"uploader":"Caveman44","files":-1,"time":1332004696,"description":"Source: Defiance.720p.BluRay.x264-iNFAMOUS\n\nSubs: Arabic, Brazilian, Bulgarian, Danish, Dutch, English, French, Greek, Hebrew, Hungarian, Italian, Polish, Portuguese, Romanian, Serbian, Slovenian, Spanish and Swedish.\n\nSample and Screens included. \n\nGeneral\nComplete name                    : Defiance-720p MP4 AAC BRRip 2008-CC.mp4\nFormat                           : MPEG-4\nFormat profile                   : Base Media\nCodec ID                         : isom\nFile size                        : 2.15 GiB\nDuration                         : 2h 16mn\nOverall bit rate                 : 2 252 Kbps\nEncoded date                     : UTC 2012-03-16 08:45:13\n\nVideo\nID                               : 1\nFormat                           : AVC\nFormat/Info                      : Advanced Video Codec\nFormat profile                   : &lt;a class=&quot;__cf_email__&quot; href=&quot;/cdn-cgi/l/email-protection&quot; data-cfemail=&quot;8fc7e6e8e7cfc3bca1be&quot;&gt;[email&amp;#160;protected]&lt;/a&gt;&lt;script cf-hash='f9e31' type=&quot;text/javascript&quot;&gt;\n/* &lt;![CDATA[ */!function(){try{var t=&quot;currentScript&quot;in document?document.currentScript:function(){for(var t=document.getElementsByTagName(&quot;script&quot;),e=t.length;e--;)if(t[e].getAttribute(&quot;cf-hash&quot;))return t[e]}();if(t&amp;&amp;t.previousSibling){var e,r,n,i,c=t.previousSibling,a=c.getAttribute(&quot;data-cfemail&quot;);if(a){for(e=&quot;&quot;,r=parseInt(a.substr(0,2),16),n=2;a.length-n;n+=2)i=parseInt(a.substr(n,2),16)^r,e+=String.fromCharCode(i);e=document.createTextNode(e),c.parentNode.replaceChild(e,c)}}}catch(u){}}();/* ]]&gt; */&lt;/script&gt;\nFormat settings, CABAC           : Yes\nFormat settings, ReFrames        : 5 frames\nCodec ID                         : avc1\nCodec ID/Info                    : Advanced Video Coding\nDuration                         : 2h 16mn\nBit rate mode                    : Variable\nBit rate                         : 1 863 Kbps\nNominal bit rate                 : 1 932 Kbps\nMaximum bit rate                 : 19.4 Mbps\nWidth                            : 1 280 pixels\nHeight                           : 688 pixels\nDisplay aspect ratio             : 1.860\nFrame rate mode                  : Variable\nFrame rate                       : 23.976 fps\nMinimum frame rate               : 13.649 fps\nMaximum frame rate               : 24.390 fps\nResolution                       : 24 bits\nColorimetry                      : 4:2:0\nScan type                        : Progressive\nBits/(Pixel*Frame)               : 0.088\nStream size                      : 1.78 GiB (83%)\nWriting library                  : x264 core 112\n\nAudio\nID                               : 2\nFormat                           : AAC\nFormat/Info                      : Advanced Audio Codec\nFormat version                   : Version 4\nFormat profile                   : LC\nFormat settings, SBR             : No\nCodec ID                         : 40\nDuration                         : 2h 16mn\nBit rate mode                    : Variable\nBit rate                         : 384 Kbps\nMaximum bit rate                 : 669 Kbps\nChannel(s)                       : 6 channels\nChannel positions                : Front: L C R, Rear: L R, LFE\nSampling rate                    : 48.0 KHz\nResolution                       : 16 bits\nStream size                      : 375 MiB (17%)\nLanguage                         : English\n","torrent":{"xt":"urn:btih:5d38bb45d4dd47f09dd1fd5f7549423fa4757a70","amp;dn":"Defiance-720p+MP4+AAC+BRRip+2008-CC","amp;tr":["udp%3A%2F%2Ftracker.openbittorrent.com%3A80","udp%3A%2F%2Fopen.demonii.com%3A1337","udp%3A%2F%2Ftracker.coppersurfer.tk%3A6969","udp%3A%2F%2Fexodus.desync.com%3A6969"],"infoHash":"5d38bb45d4dd47f09dd1fd5f7549423fa4757a70","infoHashBuffer":{"type":"Buffer","data":[93,56,187,69,212,221,71,240,157,209,253,95,117,73,66,63,164,117,122,112]},"announce":[],"urlList":[]}}